<?xml version="1.0" encoding="UTF-8"?>
<!DOCTYPE svg PUBLIC "-//W3C//DTD SVG 1.1//EN" "http://www.w3.org/Graphics/SVG/1.1/DTD/svg11.dtd">
<!-- Creator: CorelDRAW 2021.5 -->
<svg xmlns="http://www.w3.org/2000/svg" xml:space="preserve" width="4.94797in" height="1.16865in" version="1.1" style="shape-rendering:geometricPrecision; text-rendering:geometricPrecision; image-rendering:optimizeQuality; fill-rule:evenodd; clip-rule:evenodd"
viewBox="0 0 4949.26 1168.95"
 xmlns:xlink="http://www.w3.org/1999/xlink"
 xmlns:xodm="http://www.corel.com/coreldraw/odm/2003">
 <defs>
  <style type="text/css">
   <![CDATA[
    .str0 {stroke:white;stroke-width:6.67;stroke-miterlimit:2.61313}
    .fil1 {fill:#FE0000}
    .fil0 {fill:white}
   ]]>
  </style>
 </defs>
 <g id="Layer_x0020_1">
  <metadata id="CorelCorpID_0Corel-Layer"/>
  <g id="_2162087946192">
   <path class="fil0 str0" d="M3297.28 572.11c0,-180.21 196.95,-186.65 261.89,-113.51 132.12,148.81 -71.6,345.71 -212.12,220.36l-8.17 -8.31c-1.63,-1.75 -5.92,-7.19 -7.46,-9.03 -21.26,-25.34 -34.14,-47.45 -34.14,-89.52zm166.89 593.51l-39.86 0c-127.01,-9.51 -237.16,-109.55 -250.69,-272.03l123.65 0c0,107.53 91.93,173.54 196.14,146.72 119.35,-30.72 108.86,-158.24 108.86,-245.62 -69.44,16.17 -49.13,41.21 -164.86,41.21 -156.99,0 -272.59,-155.69 -263.49,-279.36 5.71,-77.63 40.98,-156.37 103.39,-202.22 220.95,-162.31 440.37,21.77 440.37,201.32l0 362.69c0,88.06 -75.9,184.59 -150.99,219.95 -33.8,15.92 -68.46,24.86 -102.52,27.35z"/>
   <path class="fil0 str0" d="M1327.16 572.11c0,-180.21 196.95,-186.65 261.89,-113.51 126.79,142.82 -54.01,344.14 -212.77,221.02 -25.12,-19.48 -49.12,-62.49 -49.12,-107.51zm-123.65 222.57c0,36.62 38.47,24.73 123.65,24.73l0 -24.73 63.32 27.35c155.95,57.17 357.08,-51.11 357.08,-266.4 0,-164.53 -167.83,-306.39 -349.47,-250.55 -33.4,10.27 -39.73,20.71 -70.94,27.98l0 -329.72 -123.65 0 0 791.34z"/>
   <path class="fil1" d="M-0 3.34l0 181.35c96.41,0 178.02,50.16 211.23,134.98 11.04,28.19 19.58,60.51 19.58,95.84l173.11 0 0 173.1c132.63,0 227.89,100.26 230.8,230.82l173.11 0c0,-136 -43.14,-199.87 -115.27,-288.65 -27.87,-34.28 -80.64,-65.38 -120.85,-85.22 -40.91,-20.16 -110.09,-38.29 -167.78,-38.29 0,-77.08 -11.87,-108.88 -33.95,-163.89 -6.65,-16.55 -7.56,-17.08 -17.08,-32.38 -26.74,-43.02 -52.36,-81.69 -93.89,-112.18 -75.42,-55.34 -149.81,-95.47 -259,-95.47z"/>
   <path class="fil0 str0" d="M2110.26 415.5l49.46 0c131.32,0 184.15,241 28.11,291.89 -59.9,19.54 -122.67,5.62 -162.33,-34.03 -35.46,-35.47 -53.29,-98.09 -35.58,-155.57 14.17,-46.01 65.81,-102.29 120.35,-102.29zm-247.3 156.61c0,170.51 189.38,344.81 420.4,222.57 9.28,34.75 8.01,24.73 123.65,24.73 0,-165.28 24.63,-337.55 -75.99,-443.34 -128.44,-135.05 -364.1,-103.33 -444.62,79.35 -14.33,32.54 -23.44,67.15 -23.44,116.68z"/>
   <path class="fil0 str0" d="M3849.58 819.41l115.4 0 0 -24.73c119.06,27.74 -14.47,41.21 280.27,41.21l0 -115.4c-97.6,0 -280.27,14.85 -280.27,-156.63 0,-64.49 40.11,-113.69 85.96,-136.59 69.29,-34.63 194.31,19.28 194.31,-36.5 0,-120.31 23.51,-98.92 -131.9,-98.92 -64.79,0 -109.45,23.4 -148.38,49.46l0 -337.97 -115.4 0 0 816.08z"/>
   <path class="fil0 str0" d="M2621.34 349.54l-82.43 0 0 469.87 115.41 0c0,-104.24 -36.99,-403.91 131.88,-403.91 69.24,0 81.73,-5.95 134.13,47.23 28.05,28.47 39.38,45.98 39.21,100.91 -0.15,46.8 -0.22,93.57 -0.23,140.36 -0.01,130.59 -25.97,115.41 123.65,115.41 0,-165.28 24.63,-337.55 -75.98,-443.34 -76.96,-80.91 -188.82,-102.62 -298.35,-62.89 -34.57,12.54 -50.61,36.36 -87.28,36.36z"/>
   <path class="fil0 str0" d="M4673.9 572.11c0,143.85 125.25,263.78 272.02,263.78l0 -115.4c-173.55,-40.44 -156.62,-123.84 -156.62,-304.99l156.62 0 0 -115.41 -156.62 0 0 -164.86 -115.4 0 0 436.89z"/>
   <path class="fil1" d="M-0 588.59c97.21,0 178.14,50.43 211.23,134.98 11.04,28.19 19.58,60.51 19.58,95.84l173.11 0c0,-73.6 -5.77,-115.03 -38.53,-184.04 -8.87,-18.68 -9.82,-15.25 -18.88,-30.59 -46.42,-78.64 -100.23,-121.78 -184.29,-161.91 -42.73,-20.4 -102.42,-35.62 -162.22,-35.62l0 181.35z"/>
   <path class="fil1" d="M403.92 184.68c132.49,0 227.81,96.36 230.8,230.82l173.11 0c0,-132.68 -52.43,-224.64 -119.98,-292.18l-22.11 -19.11c-39.19,-35.95 -40.29,-36.06 -94.04,-62.58 -40.91,-20.16 -110.09,-38.29 -167.78,-38.29l0 181.35z"/>
   <path class="fil0 str0" d="M4385.39 621.57c0,18.99 5.73,24.73 24.73,24.73l98.92 0 0 -511.08 -123.65 0 0 486.35z"/>
   <path class="fil0 str0" d="M4385.39 794.68c0,18.99 5.73,24.73 24.73,24.73l98.92 0 0 -115.41 -123.65 0 0 90.68z"/>
  </g>
 </g>
</svg>
